#tb 0: 1/44100
#media_type 0: audio
#codec_id 0: pcm_s16le
#sample_rate 0: 44100
#channel_layout_name 0: stereo
#tb 1: 1/44100
#media_type 1: audio
#codec_id 1: pcm_s16le
#sample_rate 1: 44100
#channel_layout_name 1: stereo
#tb 2: 1/44100
#media_type 2: audio
#codec_id 2: pcm_s16le
#sample_rate 2: 44100
#channel_layout_name 2: stereo
0,          0,          0,     4096,    16384, 0x02ebe66b
0,       4096,       4096,     4096,    16384, 0x35bfe081
0,       8192,       8192,     1808,     7232, 0xa585202c
1,      10000,      10000,     6384,    25536, 0x17309ccf
1,      16384,      16384,     3616,    14464, 0x67e82600
2,      20000,      20000,     4576,    18304, 0x4bc89a8b
2,      24576,      24576,     4096,    16384, 0xabf6df0f
2,      28672,      28672,     4096,    16384, 0xedefe76f
2,      32768,      32768,     4096,    16384, 0x02ebe66b
2,      36864,      36864,     4096,    16384, 0x35bfe081
2,      40960,      40960,     4096,    16384, 0xdbc2b3b9
2,      45056,      45056,     4096,    16384, 0xe92bd835
2,      49152,      49152,     4096,    16384, 0x1126dca3
2,      53248,      53248,     4096,    16384, 0x9647edcf
2,      57344,      57344,     4096,    16384, 0x5cc345aa
2,      61440,      61440,     4096,    16384, 0x19d7bd51
2,      65536,      65536,     4096,    16384, 0x19eccef7
2,      69632,      69632,     4096,    16384, 0x4b68eeed
2,      73728,      73728,     4096,    16384, 0x0b3d1bfc
2,      77824,      77824,     4096,    16384, 0xe9b2e069
2,      81920,      81920,     4096,    16384, 0xcaa5590e
2,      86016,      86016,     4096,    16384, 0x47d0b227
2,      90112,      90112,     4096,    16384, 0x446ba7a4
2,      94208,      94208,     4096,    16384, 0x299b2e17
2,      98304,      98304,     4096,    16384, 0xc51affa2
2,     102400,     102400,     4096,    16384, 0xb4970fcf
2,     106496,     106496,     4096,    16384, 0xe48af9fc
2,     110592,     110592,     4096,    16384, 0xc2beffbb
2,     114688,     114688,     4096,    16384, 0xb9d99627
2,     118784,     118784,     4096,    16384, 0xb65a2086
2,     122880,     122880,     4096,    16384, 0x6386714b
2,     126976,     126976,     4096,    16384, 0x92a3171e
2,     131072,     131072,     4096,    16384, 0x78bad1e2
2,     135168,     135168,     4096,    16384, 0x63301330
2,     139264,     139264,     4096,    16384, 0xd663b943
2,     143360,     143360,     4096,    16384, 0xdcafe377
2,     147456,     147456,     4096,    16384, 0xfb2cd701
2,     151552,     151552,     4096,    16384, 0x91c30201
2,     155648,     155648,     4096,    16384, 0xf23da341
2,     159744,     159744,     4096,    16384, 0xe8d5fa0a
2,     163840,     163840,     4096,    16384, 0x519bdfef
2,     167936,     167936,     4096,    16384, 0xf2fcd803
2,     172032,     172032,     4096,    16384, 0xd5ceccbc
2,     176128,     176128,     4096,    16384, 0xd48ada43
2,     180224,     180224,     4096,    16384, 0x5a4ac40f
2,     184320,     184320,     4096,    16384, 0x29db868a
2,     188416,     188416,     4096,    16384, 0xa2a0002b
2,     192512,     192512,     4096,    16384, 0xbb0bd9f6
2,     196608,     196608,     4096,    16384, 0x338dffa4
2,     200704,     200704,     4096,    16384, 0x970b71f5
2,     204800,     204800,     4096,    16384, 0x0521c397
2,     208896,     208896,     4096,    16384, 0xff5ec9de
2,     212992,     212992,     4096,    16384, 0x5a4ac40f
2,     217088,     217088,     4096,    16384, 0x29db868a
2,     221184,     221184,     4096,    16384, 0xa2a0002b
2,     225280,     225280,     4096,    16384, 0xbb0bd9f6
2,     229376,     229376,     4096,    16384, 0x338dffa4
2,     233472,     233472,     4096,    16384, 0x970b71f5
2,     237568,     237568,     4096,    16384, 0x0521c397
2,     241664,     241664,     4096,    16384, 0xff5ec9de
2,     245760,     245760,     4096,    16384, 0x5a4ac40f
2,     249856,     249856,     4096,    16384, 0x29db868a
2,     253952,     253952,     4096,    16384, 0xa2a0002b
2,     258048,     258048,     4096,    16384, 0xbb0bd9f6
2,     262144,     262144,     2456,     9824, 0xb3f84641
